<svg width="500" height="302" viewBox="0 0 500 302" fill="none" xmlns="http://www.w3.org/2000/svg">
<path d="M201.264 6.7856C210.329 -2.26183 225.025 -2.2619 234.09 6.7856L301.786 74.3564C302.919 75.4874 302.919 77.3211 301.786 78.452L291.452 88.7672C291.204 89.014 290.8 88.9881 290.552 88.7414L221.824 20.1402C219.558 17.8784 215.883 17.8784 213.617 20.1402L144.889 88.7414C142.623 91.0032 142.623 94.6705 144.889 96.9324L213.617 165.534C215.883 167.796 219.558 167.796 221.824 165.534L232.512 154.865C232.514 154.863 232.515 154.86 232.515 154.857C232.515 154.854 232.517 154.851 232.519 154.848L232.532 154.835C232.542 154.824 232.56 154.824 232.571 154.835L243.283 165.527C244.416 166.658 244.417 168.492 243.284 169.623L234.09 178.801C225.025 187.849 210.329 187.849 201.264 178.801L131.509 109.176C122.445 100.129 122.445 85.459 131.509 76.4113L201.264 6.7856Z" fill="url(#paint0_linear_13003_1060)"/>
<path d="M284.655 115.108C288.196 118.643 288.196 124.373 284.655 127.907L279.789 132.764C279.779 132.774 279.779 132.79 279.789 132.8C279.799 132.81 279.799 132.826 279.789 132.836L268.325 144.406C267.194 145.547 265.348 145.552 264.211 144.417L255.513 135.736C254.385 134.609 254.38 132.784 255.502 131.651L263.459 123.621C264.581 122.488 264.576 120.664 263.447 119.537L232.672 88.8184C229.131 85.2841 229.131 79.5538 232.672 76.0196L237.031 71.668C238.164 70.537 240.001 70.537 241.135 71.668L284.655 115.108Z" fill="#EE964A"/>
<path d="M297.644 178.801C288.58 187.849 273.883 187.849 264.818 178.801L197.122 111.231C195.989 110.1 195.989 108.266 197.122 107.135L207.457 96.8198C207.704 96.5731 208.109 96.5989 208.356 96.8457L277.084 165.447C279.35 167.709 283.025 167.709 285.291 165.447L354.02 96.8457C356.286 94.5838 356.285 90.9166 354.02 88.6546L285.291 20.0527C283.025 17.7911 279.35 17.791 277.084 20.0527L266.396 30.7216C266.394 30.7238 266.393 30.7269 266.393 30.7301C266.393 30.7333 266.392 30.7363 266.389 30.7386L266.376 30.752C266.366 30.763 266.348 30.7632 266.337 30.7523L255.625 20.0598C254.492 18.9289 254.492 17.0954 255.625 15.9644L264.818 6.78581C273.883 -2.26175 288.58 -2.2616 297.644 6.78581L367.399 76.4108C376.463 85.4585 376.463 100.128 367.399 109.176L297.644 178.801Z" fill="url(#paint1_linear_13003_1060)"/>
<path d="M214.253 70.4788C210.712 66.9445 210.712 61.2142 214.253 57.6799L219.119 52.823C219.13 52.813 219.13 52.7968 219.119 52.7868C219.11 52.7769 219.109 52.7608 219.119 52.7508L230.583 41.1814C231.714 40.0398 233.56 40.0347 234.697 41.1701L243.395 49.8514C244.523 50.9779 244.529 52.8028 243.406 53.9356L235.45 61.9659C234.327 63.0986 234.332 64.9235 235.461 66.0501L266.237 96.7686C269.777 100.303 269.777 106.033 266.237 109.567L261.877 113.919C260.744 115.05 258.907 115.05 257.774 113.919L214.253 70.4788Z" fill="#EE964A"/>
<path d="M26.2499 302C21.3321 302 16.9251 301.202 13.0292 299.605C9.13319 298.009 6.00363 295.646 3.6405 292.517C1.34124 289.388 0.127737 285.62 0 281.214H17.4361C17.6916 283.705 18.5538 285.62 20.0228 286.961C21.4917 288.239 23.4078 288.877 25.7709 288.877C28.1979 288.877 30.114 288.334 31.5191 287.249C32.9242 286.099 33.6267 284.535 33.6267 282.555C33.6267 280.895 33.0519 279.522 31.9023 278.436C30.8165 277.351 29.4433 276.457 27.7828 275.754C26.1861 275.052 23.8868 274.254 20.885 273.36C16.5419 272.019 12.9972 270.678 10.2509 269.337C7.50454 267.996 5.14141 266.016 3.16149 263.398C1.18157 260.78 0.191605 257.363 0.191605 253.149C0.191605 246.891 2.45893 242.006 6.99359 238.493C11.5283 234.917 17.4361 233.129 24.7171 233.129C32.1258 233.129 38.0975 234.917 42.6322 238.493C47.1668 242.006 49.5938 246.923 49.9132 253.244H32.1897C32.062 251.073 31.2636 249.381 29.7946 248.168C28.3256 246.891 26.4415 246.252 24.1423 246.252C22.1623 246.252 20.5656 246.795 19.3521 247.88C18.1386 248.902 17.5319 250.403 17.5319 252.382C17.5319 254.554 18.5538 256.246 20.5976 257.459C22.6414 258.672 25.8348 259.981 30.1778 261.386C34.5209 262.855 38.0336 264.26 40.7161 265.601C43.4625 266.942 45.8256 268.89 47.8055 271.444C49.7854 273.998 50.7754 277.287 50.7754 281.31C50.7754 285.142 49.7854 288.622 47.8055 291.751C45.8895 294.88 43.0793 297.37 39.3749 299.222C35.6705 301.074 31.2955 302 26.2499 302Z" fill="#EE964A"/>
<path d="M102.723 289.452H77.6226L73.5989 301.329H56.4502L80.7841 234.087H99.753L124.087 301.329H106.747L102.723 289.452ZM98.5076 276.808L90.1728 252.191L81.9337 276.808H98.5076Z" fill="#EE964A"/>
<path d="M170.485 301.329L147.875 271.636V301.329H131.493V234.087H147.875V263.589L170.293 234.087H189.549L163.491 267.038L190.507 301.329H170.485Z" fill="#EE964A"/>
<path d="M214.388 234.087V274.318C214.388 278.341 215.378 281.438 217.357 283.609C219.337 285.78 222.243 286.866 226.076 286.866C229.908 286.866 232.846 285.78 234.889 283.609C236.933 281.438 237.955 278.341 237.955 274.318V234.087H254.337V274.222C254.337 280.224 253.06 285.301 250.505 289.452C247.95 293.603 244.502 296.732 240.159 298.839C235.879 300.946 231.089 302 225.788 302C220.487 302 215.729 300.978 211.514 298.935C207.362 296.828 204.073 293.698 201.646 289.548C199.219 285.333 198.005 280.224 198.005 274.222V234.087H214.388Z" fill="#EE964A"/>
<path d="M314.221 234.087V247.21H296.402V301.329H280.02V247.21H262.201V234.087H314.221Z" fill="#3066BE"/>
<path d="M338.826 247.21V260.812H360.764V273.456H338.826V288.207H363.638V301.329H322.443V234.087H363.638V247.21H338.826Z" fill="#3066BE"/>
<path d="M408.571 301.329L394.584 275.946H390.656V301.329H374.274V234.087H401.769C407.07 234.087 411.573 235.013 415.278 236.865C419.046 238.717 421.856 241.271 423.708 244.528C425.56 247.721 426.486 251.297 426.486 255.256C426.486 259.726 425.209 263.717 422.654 267.229C420.163 270.742 416.459 273.232 411.541 274.701L427.061 301.329H408.571ZM390.656 264.356H400.811C403.813 264.356 406.049 263.621 407.518 262.153C409.05 260.684 409.817 258.609 409.817 255.927C409.817 253.372 409.05 251.361 407.518 249.892C406.049 248.423 403.813 247.689 400.811 247.689H390.656V264.356Z" fill="#3066BE"/>
<path d="M478.636 289.452H453.536L449.512 301.329H432.363L456.697 234.087H475.666L500 301.329H482.66L478.636 289.452ZM474.421 276.808L466.086 252.191L457.847 276.808H474.421Z" fill="#3066BE"/>
<defs>
<linearGradient id="paint0_linear_13003_1060" x1="249.454" y1="0" x2="249.454" y2="185.587" gradientUnits="userSpaceOnUse">
<stop stop-color="#3066BE"/>
<stop offset="1" stop-color="#162F58"/>
</linearGradient>
<linearGradient id="paint1_linear_13003_1060" x1="249.454" y1="0" x2="249.454" y2="185.587" gradientUnits="userSpaceOnUse">
<stop stop-color="#162F58"/>
<stop offset="1" stop-color="#3066BE"/>
</linearGradient>
</defs>
</svg>
