<svg width="650" height="106" viewBox="0 0 650 106" fill="none" xmlns="http://www.w3.org/2000/svg">
<path d="M43.5436 3.87567C48.6996 -1.29187 57.0591 -1.29191 62.215 3.87567L100.721 42.4695C101.365 43.1154 101.365 44.1627 100.721 44.8087L94.8426 50.7003C94.702 50.8413 94.4718 50.8265 94.3312 50.6856L55.2382 11.5033C53.9492 10.2115 51.859 10.2114 50.57 11.5033L11.477 50.6856C10.1882 51.9774 10.1882 54.072 11.477 55.364L50.57 94.5467C51.859 95.8384 53.9492 95.8385 55.2382 94.5467L61.3138 88.4568C61.3162 88.4543 61.3182 88.4514 61.3195 88.4482C61.3208 88.445 61.3227 88.442 61.3251 88.4395L61.3288 88.4357C61.3349 88.4294 61.345 88.4293 61.3512 88.4355L67.4444 94.5426C68.0889 95.1886 68.0889 96.2358 67.4445 96.8818L62.215 102.124C57.0591 107.292 48.6996 107.292 43.5436 102.124L3.86683 62.3572C-1.28896 57.1895 -1.28893 48.8108 3.86683 43.6431L43.5436 3.87567Z" fill="url(#paint0_linear_13003_1035)"/>
<path d="M90.9769 65.7453C92.9909 67.7639 92.9909 71.0368 90.9769 73.0555L88.2087 75.8296C88.203 75.8353 88.203 75.8446 88.2087 75.8503C88.2144 75.8559 88.2144 75.8651 88.2088 75.8708L81.6883 82.4788C81.0448 83.1309 79.9949 83.1338 79.3479 82.4853L74.4008 77.5269C73.7589 76.8834 73.756 75.8411 74.3944 75.1941L78.92 70.6076C79.5584 69.9606 79.5556 68.9182 78.9136 68.2748L61.4084 50.7296C59.3944 48.7109 59.3944 45.438 61.4084 43.4194L63.8882 40.9339C64.5327 40.288 65.5776 40.288 66.2221 40.9339L90.9769 65.7453Z" fill="#EE964A"/>
<path d="M98.3649 102.124C93.209 107.292 84.8495 107.292 79.6936 102.124L41.1878 63.5305C40.5433 62.8846 40.5433 61.8372 41.1878 61.1913L47.0659 55.2997C47.2066 55.1587 47.4368 55.1735 47.5774 55.3144L86.6704 94.4967C87.9594 95.7885 90.0496 95.7886 91.3386 94.4967L130.432 55.3144C131.72 54.0225 131.72 51.9279 130.432 50.636L91.3386 11.4533C90.0496 10.1616 87.9593 10.1615 86.6704 11.4533L80.5948 17.5432C80.5923 17.5457 80.5904 17.5486 80.5891 17.5518C80.5878 17.555 80.5859 17.558 80.5835 17.5604L80.5798 17.5643C80.5737 17.5706 80.5636 17.5707 80.5574 17.5645L74.4642 11.4574C73.8197 10.8114 73.8197 9.76421 74.4641 9.11822L79.6936 3.87579C84.8495 -1.29182 93.209 -1.29174 98.3649 3.87579L138.042 43.6428C143.198 48.8105 143.198 57.1892 138.042 62.3569L98.3649 102.124Z" fill="url(#paint1_linear_13003_1035)"/>
<path d="M50.9317 40.2547C48.9176 38.2361 48.9177 34.9632 50.9317 32.9445L53.6998 30.1704C53.7055 30.1647 53.7055 30.1554 53.6998 30.1497C53.6942 30.1441 53.6942 30.1349 53.6998 30.1291L60.2203 23.5212C60.8638 22.8691 61.9136 22.8662 62.5607 23.5147L67.5078 28.4731C68.1497 29.1166 68.1526 30.1589 67.5142 30.8059L62.9885 35.3924C62.3501 36.0394 62.353 37.0818 62.995 37.7252L80.5002 55.2704C82.5141 57.2891 82.5142 60.562 80.5002 62.5806L78.0204 65.0661C77.3759 65.712 76.331 65.712 75.6865 65.0661L50.9317 40.2547Z" fill="#EE964A"/>
<path d="M200.882 85.8146C196.22 85.8146 192.042 85.0574 188.349 83.5431C184.655 82.0289 181.688 79.7877 179.448 76.8197C177.268 73.8517 176.118 70.278 175.997 66.0986H192.526C192.769 68.4608 193.586 70.278 194.979 71.55C196.371 72.7614 198.188 73.3671 200.428 73.3671C202.729 73.3671 204.545 72.8523 205.877 71.8226C207.209 70.7323 207.875 69.2483 207.875 67.3706C207.875 65.7957 207.33 64.4934 206.24 63.4637C205.211 62.434 203.909 61.586 202.335 60.9197C200.821 60.2534 198.642 59.4963 195.796 58.6483C191.679 57.3763 188.318 56.1043 185.715 54.8323C183.111 53.5603 180.871 51.6826 178.994 49.1991C177.117 46.7157 176.179 43.4751 176.179 39.4774C176.179 33.5414 178.328 28.9077 182.627 25.5763C186.926 22.1843 192.526 20.4883 199.429 20.4883C206.452 20.4883 212.114 22.1843 216.412 25.5763C220.711 28.9077 223.012 33.5717 223.315 39.5683H206.513C206.392 37.5089 205.635 35.9037 204.242 34.7529C202.85 33.5414 201.064 32.9357 198.884 32.9357C197.007 32.9357 195.493 33.4506 194.343 34.4803C193.192 35.4494 192.617 36.8728 192.617 38.7506C192.617 40.81 193.586 42.4151 195.524 43.566C197.461 44.7169 200.488 45.9586 204.606 47.2911C208.723 48.6843 212.053 50.0168 214.596 51.2888C217.2 52.5608 219.44 54.4083 221.317 56.8311C223.194 59.254 224.132 62.3734 224.132 66.1894C224.132 69.8237 223.194 73.1248 221.317 76.0928C219.5 79.0609 216.836 81.4231 213.325 83.1797C209.813 84.9363 205.665 85.8146 200.882 85.8146Z" fill="#EE964A"/>
<path d="M273.379 73.9123H249.584L245.769 85.1786H229.512L252.581 21.3969H270.563L293.632 85.1786H277.193L273.379 73.9123ZM269.383 61.9191L261.481 38.5689L253.671 61.9191H269.383Z" fill="#EE964A"/>
<path d="M337.617 85.1786L316.183 57.0129V85.1786H300.653V21.3969H316.183V49.3809L337.436 21.3969H355.691L330.987 52.6517L356.599 85.1786H337.617Z" fill="#EE964A"/>
<path d="M379.238 21.3969V59.5569C379.238 63.3729 380.176 66.3106 382.053 68.37C383.93 70.4294 386.685 71.4591 390.318 71.4591C393.951 71.4591 396.736 70.4294 398.673 68.37C400.611 66.3106 401.58 63.3729 401.58 59.5569V21.3969H417.11V59.466C417.11 65.1597 415.899 69.9751 413.477 73.9123C411.055 77.8494 407.786 80.8174 403.669 82.8163C399.612 84.8151 395.071 85.8146 390.045 85.8146C385.02 85.8146 380.509 84.8454 376.513 82.9071C372.577 80.9083 369.459 77.9403 367.158 74.0031C364.858 70.0054 363.707 65.1597 363.707 59.466V21.3969H379.238Z" fill="#EE964A"/>
<path d="M473.881 21.3969V33.8443H456.988V85.1786H441.458V33.8443H424.565V21.3969H473.881Z" fill="#3066BE"/>
<path d="M497.206 33.8443V46.746H518.004V58.7391H497.206V72.7311H520.728V85.1786H481.675V21.3969H520.728V33.8443H497.206Z" fill="#3066BE"/>
<path d="M563.325 85.1786L550.065 61.1014H546.341V85.1786H530.811V21.3969H556.877C561.902 21.3969 566.171 22.2751 569.683 24.0317C573.255 25.7883 575.919 28.2111 577.675 31.3003C579.431 34.3288 580.309 37.7209 580.309 41.4763C580.309 45.7163 579.098 49.502 576.676 52.8334C574.314 56.1649 570.803 58.5271 566.141 59.9203L580.854 85.1786H563.325ZM546.341 50.1077H555.969C558.814 50.1077 560.933 49.4111 562.326 48.018C563.779 46.6249 564.506 44.6563 564.506 42.1123C564.506 39.6894 563.779 37.7814 562.326 36.3883C560.933 34.9951 558.814 34.2986 555.969 34.2986H546.341V50.1077Z" fill="#3066BE"/>
<path d="M629.747 73.9123H605.952L602.137 85.1786H585.88L608.949 21.3969H626.931L650 85.1786H633.561L629.747 73.9123ZM625.751 61.9191L617.849 38.5689L610.039 61.9191H625.751Z" fill="#3066BE"/>
<defs>
<linearGradient id="paint0_linear_13003_1035" x1="70.9543" y1="0" x2="70.9543" y2="106" gradientUnits="userSpaceOnUse">
<stop stop-color="#3066BE"/>
<stop offset="1" stop-color="#162F58"/>
</linearGradient>
<linearGradient id="paint1_linear_13003_1035" x1="70.9543" y1="0" x2="70.9543" y2="106" gradientUnits="userSpaceOnUse">
<stop stop-color="#162F58"/>
<stop offset="1" stop-color="#3066BE"/>
</linearGradient>
</defs>
</svg>
