<svg width="351" height="261" viewBox="0 0 351 261" fill="none" xmlns="http://www.w3.org/2000/svg">
<path d="M107.427 9.54291C120.143 -3.18092 140.761 -3.18102 153.478 9.54291L248.447 104.571C250.037 106.162 250.037 108.74 248.447 110.331L233.95 124.838C233.603 125.185 233.035 125.148 232.688 124.801L136.27 28.3241C133.091 25.1433 127.936 25.1432 124.757 28.3241L28.3387 124.801C25.1598 127.982 25.16 133.14 28.3387 136.321L124.757 232.799C127.936 235.98 133.091 235.98 136.27 232.799L151.269 217.79C151.271 217.788 151.271 217.785 151.269 217.783C151.267 217.781 151.267 217.778 151.269 217.776L151.292 217.752C151.307 217.736 151.332 217.736 151.347 217.752L166.375 232.789C167.965 234.379 167.965 236.958 166.376 238.549L153.478 251.457C140.761 264.181 120.144 264.181 107.427 251.457L9.56905 153.54C-3.14709 140.816 -3.147 120.185 9.56905 107.461L107.427 9.54291Z" fill="url(#paint0_linear_13005_96)"/>
<path d="M224.415 161.882C229.383 166.853 229.383 174.911 224.415 179.882L217.588 186.713C217.574 186.727 217.574 186.749 217.588 186.763C217.602 186.777 217.602 186.8 217.588 186.814L201.506 203.085C199.919 204.69 197.33 204.697 195.734 203.101L183.532 190.892C181.949 189.307 181.942 186.741 183.516 185.148L194.679 173.854C196.253 172.261 196.246 169.695 194.663 168.111L151.488 124.91C146.521 119.939 146.521 111.88 151.488 106.91L157.604 100.79C159.194 99.1996 161.771 99.1996 163.361 100.79L224.415 161.882Z" fill="#EE964A"/>
<path d="M242.637 251.457C229.92 264.181 209.303 264.181 196.586 251.457L101.616 156.429C100.027 154.838 100.027 152.26 101.616 150.669L116.114 136.162C116.461 135.815 117.029 135.852 117.376 136.199L213.794 232.676C216.973 235.857 222.128 235.857 225.307 232.676L321.725 136.199C324.904 133.018 324.904 127.86 321.725 124.679L225.307 28.2011C222.128 25.0205 216.973 25.0203 213.794 28.2011L198.795 43.2102C198.793 43.2121 198.793 43.2153 198.795 43.2172C198.797 43.2191 198.797 43.2222 198.795 43.2241L198.772 43.248C198.757 43.2635 198.732 43.2638 198.717 43.2485L183.689 28.2111C182.099 26.6206 182.099 24.0421 183.688 22.4515L196.586 9.54321C209.303 -3.18081 229.92 -3.18059 242.637 9.54321L340.495 107.46C353.211 120.184 353.211 140.815 340.495 153.539L242.637 251.457Z" fill="url(#paint1_linear_13005_96)"/>
<path d="M125.649 99.1177C120.681 94.1473 120.681 86.0885 125.649 81.1181L132.476 74.2875C132.49 74.2734 132.49 74.2507 132.476 74.2366C132.462 74.2226 132.462 74.2 132.476 74.1859L148.558 57.9154C150.145 56.3099 152.734 56.3027 154.33 57.8995L166.532 70.1084C168.115 71.6927 168.122 74.2592 166.547 75.8522L155.385 87.1456C153.811 88.7386 153.818 91.3051 155.401 92.8894L198.576 136.09C203.543 141.061 203.543 149.12 198.576 154.09L192.46 160.21C190.87 161.8 188.293 161.8 186.703 160.21L125.649 99.1177Z" fill="#EE964A"/>
<defs>
<linearGradient id="paint0_linear_13005_96" x1="175.032" y1="0" x2="175.032" y2="261" gradientUnits="userSpaceOnUse">
<stop stop-color="#3066BE"/>
<stop offset="1" stop-color="#162F58"/>
</linearGradient>
<linearGradient id="paint1_linear_13005_96" x1="175.032" y1="0" x2="175.032" y2="261" gradientUnits="userSpaceOnUse">
<stop stop-color="#162F58"/>
<stop offset="1" stop-color="#3066BE"/>
</linearGradient>
</defs>
</svg>
